<?xml version="1.0" encoding="UTF-8" standalone="no"?>
<!-- Created with Inkscape (http://www.inkscape.org/) -->

<svg
   version="1.1"
   id="svg10"
   width="32"
   height="32"
   viewBox="0 0 32 32"
   sodipodi:docname="nasty-pixie.svg"
   inkscape:version="1.1.1 (3bf5ae0d25, 2021-09-20)"
   xmlns:inkscape="http://www.inkscape.org/namespaces/inkscape"
   xmlns:sodipodi="http://sodipodi.sourceforge.net/DTD/sodipodi-0.dtd"
   xmlns="http://www.w3.org/2000/svg"
   xmlns:svg="http://www.w3.org/2000/svg"
   xmlns:rdf="http://www.w3.org/1999/02/22-rdf-syntax-ns#"
   xmlns:cc="http://creativecommons.org/ns#"
   xmlns:dc="http://purl.org/dc/elements/1.1/">
  <metadata
     id="metadata16">
    <rdf:RDF>
      <cc:Work
         rdf:about="">
        <dc:format>image/svg+xml</dc:format>
        <dc:type
           rdf:resource="http://purl.org/dc/dcmitype/StillImage" />
      </cc:Work>
    </rdf:RDF>
  </metadata>
  <defs
     id="defs14">
    <filter
       inkscape:collect="always"
       style="color-interpolation-filters:sRGB"
       id="filter935"
       x="-0.044412046"
       width="1.0888241"
       y="-0.03026713"
       height="1.0605343">
      <feGaussianBlur
         inkscape:collect="always"
         stdDeviation="5.5294333"
         id="feGaussianBlur937" />
    </filter>
  </defs>
  <sodipodi:namedview
     pagecolor="#ffffff"
     bordercolor="#666666"
     borderopacity="1"
     objecttolerance="10"
     gridtolerance="10"
     guidetolerance="10"
     inkscape:pageopacity="0"
     inkscape:pageshadow="2"
     inkscape:window-width="1920"
     inkscape:window-height="1001"
     id="namedview12"
     showgrid="false"
     inkscape:zoom="10.961658"
     inkscape:cx="22.989223"
     inkscape:cy="24.129562"
     inkscape:window-x="-9"
     inkscape:window-y="-9"
     inkscape:window-maximized="1"
     inkscape:current-layer="svg10"
     inkscape:pagecheckerboard="0"
     width="32px" />
  <g
     id="g956"
     transform="matrix(0.04894405,0,0,0.04894405,-13.468194,18.612236)">
    <path
       sodipodi:nodetypes="cssssssssssssssccscsssccscsccscsssscscccssccscccsssscsscssccccsccsscccssssscssssc"
       inkscape:connector-curvature="0"
       id="path24"
       d="m 508.53898,206.08332 c -7.61311,-0.57974 -42.44317,-5.04909 -56.97905,-7.31146 -28.71416,-4.4691 -68.31294,-30.77895 -92.74163,-61.61848 C 327.93151,98.160917 306.63072,52.024557 300.00455,9.766007 c -4.00867,-25.56542 -2.82783,-74.08395 2.39504,-98.4073 12.11582,-56.424487 36.47613,-106.261297 71.92181,-147.139077 14.32536,-16.52074 42.74032,-41.19232 62.92054,-54.6314 34.16575,-22.7528 80.73768,-44.29634 118.95821,-55.02848 47.51308,-13.34143 104.63512,-13.97109 141.94074,-1.56463 15.13836,5.03446 43.32518,19.33956 52.45158,26.61972 4.33226,3.45587 11.39843,8.95332 15.70257,12.21657 22.21864,16.84537 52.65618,55.8198 66.90011,85.66375 18.43009,38.61479 24.00366,69.60926 20.55555,114.30861 -7.98237,103.478727 -67.86896,209.78834 -143.48394,254.71017 -36.71367,21.81109 -95.9644,45.93284 -132.00703,53.74177 -13.3911,2.90129 -55.51442,7.47385 -61.06717,6.62895 -1.03005,-0.15681 -4.92416,-0.51734 -8.65358,-0.80134 z m 67.80766,-48.03179 c 83.82884,-18.98309 161.12722,-75.247793 191.63549,-139.489583 7.57798,-15.95704 7.67786,-24.83855 0.30834,-27.41468 -6.18294,-2.16134 -9.71428,1.42982 -15.44928,15.71093 -21.8647,54.44684 -96.07867,111.092153 -172.02659,131.302753 -18.47216,4.91565 -21.66232,5.25501 -50.23813,5.34397 -16.7824,0.0522 -31.46699,0.71217 -32.63244,1.46646 -1.16544,0.75429 -2.11899,3.58808 -2.11899,6.29732 0,5.44087 3.57062,8.17075 13.56153,10.36835 10.39332,2.2861 50.51944,0.13748 66.96007,-3.58552 z m -2.02659,-60.703183 c 4.11611,-4.54825 10.76467,-20.52712 15.10812,-36.31027 3.51302,-12.76547 3.87038,-17.68132 3.87038,-53.24013 0,-42.89742 -9.02931,-85.98161 -0.48974,-57.98487 5.51625,18.08497 17.73979,66.10604 27.31225,70.73998 13.19935,6.3897 31.97311,4.03147 45.36424,-5.69832 10.06654,-7.31419 13.42042,-14.52915999 13.42042,-28.8704 0,-12.49882 0.28427,-12.93597 17.4173,-26.78477 16.51013,-13.34531 21.10179,-29.94695 12.86794,-46.52551 -5.17715,-10.42406 -14.53508,-16.903157 -28.04143,-19.414927 l -10.4672,-1.94657 6.5067,-4.71345 c 13.36271,-9.67988 23.75606,-30.19414 23.75155,-46.88043 -0.003,-12.38544 -3.81438,-20.03256 -13.27209,-26.63151 -6.38342,-4.45391 -9.10937,-5.20273 -20.88673,-5.73757 -12.79195,-0.58091 -13.64759,-0.86406 -15.38737,-5.09192 -8.38338,-20.37272 -9.6771,-22.40511 -15.92309,-25.01486 -10.58177,-4.42134 -26.68319,0.56714 -39.65397,12.28546 -14.42345,13.03072 -22.08378,31.37243 -22.37198,53.56691 l 2.22186,40.48738 -7.16353,-40.04332 c -6.20606,-17.0225 -11.54149,-25.93324 -20.22545,-33.77867 -14.94799,-13.50462 -32.4216,-16.56449 -48.588,-8.50843 -12.39878,6.17857 -15.63595,12.39613 -18.23658,35.02653 -1.09425,9.52197 -1.28297,9.80203 -11.59379,17.20317 -13.73111,9.85625 -18.84955,15.44264 -23.23423,25.35841 -4.47502,10.12003 -3.43719,18.53261 3.46108,28.055397 5.80965,8.01998 17.75262,13.08165 35.05718,14.85791 l 39.69776,1.78272 -40.03535,1.76986 c -23.80124,1.05219 -38.53712,15.13033 -46.85799,32.31894 -11.31236,23.36823 -2.5462,45.34604 21.75638,54.54582 l 8.14969,3.0851 0.8476,12.46862 c 1.00631,14.80357 4.04874,20.16719 14.23717,25.09931 16.34386,7.91194 38.3811,2.72941 55.40201,-13.02895 12.16376,-11.2615 16.71106,-18.66879 27.12203,-44.18025 5.25266,-12.87137 5.83048,-34.52209 6.55431,-32.6358 0.5963,1.55392 3.48154,31.18265 3.48154,46.0634 0,30.25255 -2.38032,45.47078 -10.30798,65.90234 -5.31792,13.70561 -6.12493,20.18322 -2.91451,23.39365 2.97223,2.972233 8.89863,2.485083 12.0435,-0.98998 z M 376.68179,-121.36508 c 1.13461,-0.72097 5.21018,-8.14694 9.05681,-16.50217 3.84663,-8.35522 11.29167,-21.67543 16.54455,-29.60045 12.40993,-18.72288 51.6828,-58.06967 73.19959,-73.33735 19.86587,-14.09624 51.76291,-30.1643 72.04564,-36.29282 13.9164,-4.20491 17.83594,-4.62585 44.61559,-4.79155 31.33194,-0.19385 32.4321,-0.49402 32.48967,-8.86438 0.0476,-6.91639 -6.72426,-9.35364 -28.44592,-10.238 -23.52643,-0.95784 -38.62379,1.12185 -60.0077,8.26617 -66.0084,22.05326 -131.79631,77.88197 -162.57599,137.96468 -10.39016,20.28185 -11.8962,27.43147 -6.6698,31.66355 4.13743,3.35029 6.53164,3.77579 9.74756,1.73232 z"
       style="opacity:1;fill:#ffcc00;fill-opacity:1;stroke:#000000;stroke-width:15.2567;stroke-linecap:round;stroke-linejoin:miter;stroke-miterlimit:4;stroke-dasharray:none;stroke-opacity:1;paint-order:stroke fill markers" />
    <path
       sodipodi:nodetypes="cscsscccccc"
       inkscape:connector-curvature="0"
       id="path34"
       d="m 501.03235,240.97996 c -6.92571,-1.81345 -21.03818,-7.49441 -31.36104,-12.62437 l -49.33522,-17.71796 41.58512,9.29184 c 5.93421,1.32595 18.64711,1.80683 27.97066,2.91388 l 16.95192,2.01281 9.36871,9.80384 9.36871,9.80383 -5.97833,-0.0933 c -3.28808,-0.0513 -11.64482,-1.57707 -18.57053,-3.39052 z"
       style="opacity:1;fill:#d4aa00;fill-opacity:1;stroke:#000000;stroke-width:15.2567;stroke-linecap:round;stroke-linejoin:miter;stroke-miterlimit:4;stroke-dasharray:none;stroke-opacity:1;paint-order:stroke fill markers" />
    <path
       sodipodi:nodetypes="csssssc"
       inkscape:connector-curvature="0"
       id="path46"
       d="m 897.58425,-128.90509 c -25.26469,-22.28408 -23.53474,-19.85473 -26.48937,-37.19874 -1.47785,-8.67515 -5.66028,-24.86069 -9.29428,-35.96787 -3.63401,-11.10718 -16.44559,-41.52228 -16.01722,-41.95065 1.45917,-1.45917 28.24085,46.83145 38.28789,67.2311 8.85465,17.97859 21.44904,51.11428 19.98446,52.57886 -0.29671,0.29671 -3.20888,-1.815 -6.47148,-4.6927 z"
       style="opacity:1;fill:#d4aa00;fill-opacity:1;stroke:#000000;stroke-width:15.2567;stroke-linecap:round;stroke-linejoin:miter;stroke-miterlimit:4;stroke-dasharray:none;stroke-opacity:1;paint-order:stroke fill markers" />
    <path
       inkscape:connector-curvature="0"
       id="path22"
       d="m 550.95169,266.61804 c -5.34324,-0.56092 -11.26566,-1.40907 -13.16096,-1.88476 -1.89529,-0.47568 -9.52354,-1.40483 -16.95169,-2.06475 -37.48407,-3.33016 -85.61701,-26.73713 -124.73433,-60.65811 -5.9131,-5.1276 -11.52983,-10.93083 -12.48162,-12.89606 -0.95178,-1.96522 -6.80634,-8.0202 -13.01013,-13.45549 -44.03923,-38.58384 -79.41772,-104.460213 -88.86268,-165.466373 -2.81257,-18.16668 -3.12821,-62.12018 -0.58067,-80.85915 6.99426,-51.447827 25.01427,-99.650027 52.83636,-141.333327 14.39926,-21.57311 22.99686,-32.20962 39.70519,-49.12124 30.27872,-30.64711 62.025,-52.63724 108.28884,-75.00989 80.12861,-38.74927 159.54901,-48.62896 222.66667,-27.69914 16.05237,5.32297 35.97242,15.22349 51.20069,25.4474 6.86735,4.61058 16.75656,11.0283 21.97603,14.26161 67.42174,41.76574 128.24134,125.55232 144.34846,198.85803 3.62935,16.51764 3.30239,60.180927 -0.64346,85.929887 -9.64268,62.92421 -34.631,122.43953 -72.77636,173.333333 -14.44476,19.27229 -45.58016,50.82481 -59.4387,60.23498 -33.12673,22.49361 -95.87358,51.07388 -136.66666,62.24966 -36.61571,10.03134 -70.51591,13.40866 -101.71498,10.13339 z m 47.62688,-17.0502 5.9119,-0.90117 -10.57856,-9.77517 c -5.81822,-5.37635 -13.94831,-11.76046 -18.06686,-14.18692 -6.72833,-3.96402 -8.08148,-4.30008 -13.33333,-3.31143 -3.21479,0.60517 -11.39505,1.52149 -18.17839,2.03627 -6.78333,0.51476 -12.29438,1.30373 -12.24678,1.75326 0.12973,1.22488 19.32094,17.6126 25.54969,21.81732 5.14551,3.47347 6.21151,3.66145 20.23107,3.56784 8.13965,-0.0544 17.45972,-0.50436 20.71126,-1 z m -79.20656,-12.68409 c -4.97161,-4.44483 -8.70534,-8.8768 -8.70534,-10.33333 0,-1.9869 -0.95747,-2.55215 -4.33334,-2.55828 -2.38333,-0.004 -10.33333,-0.93824 -17.66666,-2.07536 -7.33334,-1.13714 -17.58028,-2.30743 -22.77099,-2.60064 -5.19071,-0.29322 -12.09071,-1.12179 -15.33333,-1.84128 -5.35162,-1.18743 -5.65,-1.12628 -3.23336,0.66272 1.46428,1.08397 8.96428,5.17858 16.66666,9.09914 23.42162,11.92172 43.25395,18.0551 57.04303,17.64122 l 7.03868,-0.21127 z m 121.96132,5.12273 c 4.76667,-1.17369 12.41634,-3.3541 16.99926,-4.84536 l 8.33258,-2.71137 -15.527,-16.348 -15.52701,-16.348 -14.13892,4.94652 c -7.7764,2.72059 -17.28696,5.73892 -21.13457,6.70741 l -6.99567,1.7609 12.16828,11.41572 c 14.1492,13.2741 22.08956,19.03372 25.05016,18.17038 1.15843,-0.33781 6.00623,-1.57449 10.77289,-2.7482 z m 57.46971,-19.8739 c 21.06801,-8.91651 26.53487,-11.50286 26.48151,-12.5283 -0.0268,-0.51569 -3.93939,-3.93761 -8.69458,-7.60428 -4.75518,-3.66666 -12.62817,-10.67738 -17.4955,-15.57937 l -8.8497,-8.91271 -7.45572,3.74034 c -4.10065,2.05718 -11.95572,5.68394 -17.45572,8.05946 -5.5,2.37552 -10.5343,4.81739 -11.18733,5.42638 -0.66585,0.62094 5.72581,8.1693 14.55295,17.18657 8.65716,8.84364 15.85282,16.07933 15.99038,16.07933 0.13755,0 6.48872,-2.64034 14.11371,-5.86742 z M 560,204.475 c 30.56061,-4.39365 60.60193,-14.00169 103.62493,-33.14208 47.93132,-21.32403 73.47944,-38.53347 99.17082,-66.80233 47.95484,-52.765933 78.68241,-118.443573 90.07625,-192.530583 3.37451,-21.942317 3.398,-67.202657 0.0425,-81.999987 -9.13801,-40.29838 -29.99884,-80.38791 -58.69833,-112.80425 -11.62732,-13.13317 -33.18277,-32.26487 -38.11683,-33.83088 -1.52132,-0.48285 -2.76604,-1.44958 -2.76604,-2.14829 0,-3.59892 -32.11329,-21.02747 -51.068,-27.71567 -35.43011,-12.50156 -81.47931,-14.23185 -126.4055,-4.74964 -50.65347,10.69101 -112.33091,39.02315 -155.8598,71.59574 -15.55792,11.64196 -42.49007,37.75904 -54.63995,52.98632 -56.18105,70.41104 -80.9104,165.189777 -64.53334,247.333327 10.05722,50.44474 44.38602,110.285013 82.07906,143.076163 26.76471,23.28404 58.19062,37.73624 82.24739,37.82408 4.86576,0.0177 12.28717,0.9047 16.49201,1.97095 17.98755,4.56123 50.44674,4.94944 78.35483,0.93713 z m -49.31747,-43.37206 c -13.28888,-1.89651 -18.67857,-9.1069 -11.88524,-15.90023 2.22326,-2.22325 3.79655,-2.62888 7.66667,-1.97665 11.5658,1.94917 37.04883,2.37156 48.68123,0.80689 85.1954,-11.4596 177.27234,-76.679623 200.84526,-142.262903 3.32667,-9.25525 7.90968,-12.6778 13.19135,-9.85113 7.36712,3.94276 6.23905,10.75337 -5.645,34.08109 -28.19133,55.33796 -98.91097,107.521583 -173.36956,127.928423 -28.95348,7.93527 -56.64188,10.43449 -79.48471,7.17451 z m 51.52412,-63.541253 c -3.1198,-3.44735 -2.77361,-6.60912 1.83707,-16.77774 5.29369,-11.67501 10.03397,-29.63638 12.05136,-45.66387 1.74208,-13.84024 0.97057,-51.35035 -1.20227,-58.4534 l -1.22361,-4 -1.37637,3.33333 c -0.75702,1.83333 -4.75686,12.03333 -8.88855,22.66667 -8.45672,21.76424 -13.58964,30.13164 -24.91776,40.61946 -23.66907,21.91339 -56.75937,22.3172 -67.82425,0.8277 -0.91174,-1.77074 -1.73374,-8.30442 -1.82666,-14.51931 l -0.16894,-11.29979 -5.33334,-1.59436 c -12.41417,-3.71114 -21.60502,-10.80156 -26.83258,-20.70037 -1.77524,-3.36156 -2.46,-7.49055 -2.44847,-14.76405 0.0137,-8.71132 0.62029,-11.32487 4.41819,-19.03951 10.32668,-20.97645 27.83224,-30.97194 59.5842,-34.02194 10.34046,-0.99328 10.92826,-1.17164 4.37514,-1.32763 -11.25756,-0.26797 -26.99548,-2.69652 -36.50138,-5.63259 -6.66726,-2.0593 -9.50238,-3.8358 -13.66054,-8.55972 -15.2497,-17.324577 -7.77716,-38.021487 20.18583,-55.909187 4.05336,-2.59291 7.80707,-5.42198 8.34157,-6.28682 0.5345,-0.86482 1.43871,-7.10609 2.00936,-13.86948 1.61418,-19.13117 5.51222,-25.64789 19.19535,-32.09065 14.37527,-6.76865 32.22955,-3.03345 45.87144,9.59655 9.23077,8.54606 15.55344,19.84296 22.09835,39.4838 l 4.58342,13.75457 -0.71462,-12 c -1.8715,-31.42639 11.80176,-58.76367 35.13786,-70.252 14.21878,-6.99987 25.69267,-6.51519 32.84443,1.38741 1.36469,1.50796 4.38295,8.01939 6.70723,14.46984 l 4.22596,11.72808 11.36116,-0.46061 c 8.32576,-0.33755 12.74781,0.1188 16.5512,1.70792 16.86916,7.04839 23.64922,21.71339 18.7964,40.65583 -3.91331,15.27514 -14.08682,30.07955 -25.75599,37.47993 l -5.66313,3.59145 9.91429,1.59935 c 13.70008,2.21006 22.97543,7.163537 28.28224,15.104097 5.7938,8.66923 8.09312,19.27955 5.94924,27.45306 -2.31908,8.84145 -9.57565,18.6813 -18.34005,24.86897 -15.84166,11.18418 -15.18183,10.20894 -15.1902,22.45185 -0.0107,15.25808 -1.72926,20.38757 -9.28936,27.7222 -8.76886,8.50733 -18.87012,12.33704 -32.7032,12.39881 -8.4508,0.0377 -11.80083,-0.55445 -16.12624,-2.85072 C 612.63283,16.190847 607.06519,9.174037 604.62225,0.32739701 599.3182,-18.880203 594.14317,-33.665043 591.77516,-36.376243 c -2.41753,-2.7679 -2.54195,-2.78647 -1.94468,-0.29042 4.75443,19.86932 5.63953,63.26232 1.71983,84.31588 -3.77466,20.27439 -12.11035,43.67303 -17.79687,49.95657 -2.7984,3.092193 -8.72899,3.069543 -11.54679,-0.0441 z m -47.89008,-62.17227 c 8.26092,-3.84605 19.31948,-13.8047 23.7009,-21.34353 1.71945,-2.95857 7.14118,-15.57921 12.04828,-28.04588 11.53584,-29.30725 12.57964,-31.25456 19.7456,-36.83752 5.79624,-4.5158 6.42729,-4.68798 16.72913,-4.56478 10.25676,0.12266 10.89839,0.31481 15.30141,4.5824 5.73986,5.56327 9.99156,15.00403 15.98042,35.48386 5.63825,19.28092 7.94456,22.00969 18.58537,21.98968 7.45267,-0.014 18.73716,-4.39448 22.25899,-8.64059 1.38861,-1.67418 2.2038,-6.76384 2.66666,-16.64941 0.61514,-13.13755 0.96494,-14.62913 4.52542,-19.29707 2.1223,-2.78244 6.61137,-6.93568 9.9757,-9.22943 3.36432,-2.29376 9.01556,-6.87566 12.5583,-10.18198 8.0815,-7.54224 9.46808,-13.78054 5.00669,-22.52558 -3.55153,-6.96159 -8.79261,-9.42098 -22.24461,-10.43835 -11.04403,-0.83525 -19.50086,0.55077 -43.08219,7.06095 -9.12672,2.51964 -18.67947,4.58116 -21.22835,4.58116 -10.00454,0 -12.81066,-9.48239 -5.32809,-18.00458 6.199,-7.060257 13.57943,-10.829177 37.92264,-19.365757 12.08383,-4.2375 24.09005,-9.32113 26.68049,-11.29696 9.84779,-7.51126 17.9038,-22.20173 17.86102,-32.57022 -0.0273,-6.63033 -2.49276,-10.76433 -8.16899,-13.69783 -4.23168,-2.18694 -5.64989,-2.30917 -11.04148,-0.95156 -16.3392,4.11427 -25.12245,-1.55502 -31.30612,-20.20701 -3.0084,-9.07435 -4.28325,-11.32207 -6.61811,-11.66851 -8.54522,-1.26793 -23.13157,9.77823 -29.4343,22.2904 -5.57283,11.0632 -6.78011,19.51254 -6.49722,45.47203 0.27048,24.82048 -0.66893,30.9359 -5.96004,38.798607 -3.61786,5.37623 -11.23426,8.45593 -16.22226,6.55949 -3.6071,-1.37141 -4.2964,-3.41421 -8.09528,-23.990777 -2.57455,-13.94494 -8.53768,-34.05281 -13.27592,-44.76684 -9.37646,-21.2018 -31.88847,-30.81204 -43.42104,-18.53617 -2.74334,2.92014 -3.35459,5.26724 -4.12868,15.85337 -1.26492,17.29852 -4.2785,22.85273 -16.73496,30.84357 -13.72576,8.80509 -21.74262,17.87863 -21.74262,24.60843 0,4.70692 6.68598,10.119887 14.72879,11.924447 3.99917,0.89728 17.48784,2.06813 29.97481,2.60188 20.31411,0.86831 23.48424,1.32783 30.12071,4.36611 12.67961,5.80492 17.52167,16.93993 10.57963,24.3294 -4.5339,4.8261 -9.01567,5.74926 -32.0706,6.60598 -23.74014,0.88216 -35.88047,3.12062 -45.6013,8.408 -11.63846,6.33044 -19.76584,20.78663 -17.95612,31.93861 1.16515,7.17998 6.62784,12.06612 16.91504,15.12979 13.87518,4.13220001 17.30904,9.25221 17.30904,25.80833 0,10.64563 0.21052,11.4898 3.51315,14.08766 5.05495,3.97622 16.31381,3.74909 25.47009,-0.51382 z M 366.02729,-123.96983 c -3.38806,-3.74377 -2.12252,-9.47021 5.72226,-25.89251 29.10438,-60.92742 97.95144,-120.50239 164.25045,-142.12981 21.73521,-7.09024 31.35391,-8.6745 52.66667,-8.6745 20.41197,0 31.88053,2.03974 34.02784,6.05201 2.353,4.39662 1.50562,9.08872 -2.06374,11.42745 -2.8924,1.89518 -4.43342,1.99388 -10.88904,0.69741 -11.8673,-2.3833 -33.63016,-1.85515 -48.51052,1.17728 -43.0726,8.77763 -89.70604,36.41447 -128.79918,76.33153 -24.07043,24.57772 -38.51344,45.24608 -48.5443,69.46824 -2.69233,6.50133 -5.71846,12.34214 -6.72477,12.97958 -3.17147,2.00899 -8.65797,1.30114 -11.13567,-1.43668 z m 385.8104,321.11814 c 6.1567,-3.43745 19.37878,-11.29368 21.31466,-12.6646 0.26712,-0.18917 -2.50015,-3.8254 -6.14947,-8.08049 -3.64933,-4.25511 -10.06783,-12.68655 -14.26333,-18.73655 -4.19551,-6.05 -8.14951,-11 -8.78666,-11 -0.63716,0 -4.93721,2.61228 -9.55568,5.80507 -4.61846,3.19278 -12.86048,8.38541 -18.31558,11.53914 l -9.91838,5.7341 8.90826,8.43972 c 7.50629,7.11152 27.10862,22.83616 28.76618,23.07574 0.2774,0.0401 3.8774,-1.81037 8,-4.11213 z m 54.74423,-40.45411 15.10107,-15.30579 -6.50816,-5.81311 c -10.17418,-9.08759 -15.18068,-13.24153 -24.38323,-20.23099 l -8.54175,-6.48756 -12.25161,13.18063 -12.25161,13.18064 8.01209,11.39099 C 778.15039,164.22655 785.11575,172 788.51019,172 c 2.02246,0 7.79069,-4.88538 18.07173,-15.3058 z m 34.47048,-41.02753 c 11.30139,-15.734663 15.33557,-22.502453 14.06105,-23.588943 -0.6124,-0.52204 -5.31345,-3.88623 -10.44678,-7.47596 -5.13334,-3.58974 -13.53866,-10.18946 -18.67848,-14.66604 l -9.34515,-8.13926 -9.98819,14.50895 c -5.4935,7.97992 -10.77121,15.61524 -11.72824,16.96736 -1.56461,2.21055 -0.89242,3.10963 6.66667,8.917033 4.62369,3.55222 13.11177,10.5127 18.86239,15.46773 5.75062,4.95503 10.95976,9.00913 11.57584,9.00913 0.61609,0 4.67549,-4.95 9.02089,-11 z m 28.88973,-47.551773 c 2.55328,-5.07013 6.82531,-14.49193 9.49338,-20.93732 l 4.85105,-11.71888 -5.14328,-4.00825 c -2.8288,-2.20455 -11.26405,-9.96793 -18.745,-17.25197 L 846.79655,0.95476701 844.46807,6.810717 c -1.28068,3.22077 -6.07898,13.47401 -10.6629,22.78497 l -8.33438,16.92903 7.59793,6.97246 c 8.04217,7.38013 29.58664,23.80697 31.24785,23.82531 0.54078,0.005 3.07228,-4.13744 5.62556,-9.20759 z m 27.42986,-74.10241 c 2.91208,-11.41405 5.29468,-21.83652 5.29468,-23.16103 0,-1.42246 -3.04898,-4.5081 -7.44879,-7.53838 -4.09684,-2.8216 -12.18211,-10.23605 -17.96728,-16.47657 -5.78516,-6.24051 -10.71503,-11.08167 -10.95524,-10.75811 -0.24023,0.32356 -1.84527,6.58047 -3.56677,13.90424 -1.72151,7.32377 -4.54042,17.82377 -6.26424,23.33333 l -3.13426,10.01737 18.18548,17.83907 c 14.76275,14.48155 18.40908,17.43948 19.3736,15.71599 0.65348,-1.16771 3.57075,-11.46186 6.48282,-22.87591 z m 9.76569,-54.88032 C 907.61196,-66.478473 908,-75.678473 908,-81.312273 v -10.24328 l -8.33333,-8.568527 c -4.58334,-4.71269 -12.23334,-12.69917 -17,-17.74773 L 874,-127.051 l -0.91095,7.19217 c -2.74297,21.656437 -3.5496,36.539187 -2.00725,37.035227 0.87168,0.28033 8.52465,7.63033 17.00663,16.33333 8.48197,8.70299 16.04393,15.82362 16.80434,15.82362 0.76043,0 1.77064,-4.59052 2.24491,-10.20118 z m -4.41001,-71.886127 c -6.8162,-24.8453 -21.99871,-56.6601 -39.40808,-82.57936 -9.36795,-13.94708 -20.99427,-28.65857 -16.1938,-20.491 8.9984,15.30999 20.87678,51.0296 23.53246,70.76474 2.15878,16.04248 2.21615,16.21248 6.28686,18.6295 2.04686,1.21535 9.11945,7.66564 15.71686,14.33397 6.59743,6.66835 12.18996,11.54032 12.42787,10.82662 0.23789,-0.71371 -0.82508,-5.88172 -2.36217,-11.48447 z"
       style="fill:#000000;stroke-width:1.33333" />
    <path
       inkscape:connector-curvature="0"
       id="path26"
       d="m 734.50232,193.2028 c -5.10194,-3.97269 -13.20114,-10.7606 -17.99821,-15.08424 l -8.72195,-7.86117 17.93635,-11.32633 c 9.86499,-6.22949 18.17249,-11.08316 18.4611,-10.78594 0.28861,0.29721 6.61724,8.53495 14.06363,18.30607 15.29494,20.06997 15.61917,17.30065 -3.2499,27.75887 l -11.21475,6.21581 z"
       style="opacity:1;fill:#d4aa00;fill-opacity:1;stroke:#000000;stroke-width:15.2567;stroke-linecap:round;stroke-linejoin:miter;stroke-miterlimit:4;stroke-dasharray:none;stroke-opacity:1;paint-order:stroke fill markers" />
    <path
       inkscape:connector-curvature="0"
       id="path28"
       d="m 675.28929,217.61431 c -5.03035,-5.2784 -11.75115,-12.44445 -14.93511,-15.92455 l -5.78901,-6.32745 17.67965,-8.30773 17.67965,-8.30773 10.17114,9.58679 c 5.59414,5.27273 13.50725,12.31023 17.58471,15.63889 l 7.41355,6.0521 -6.56596,2.70736 c -3.61128,1.48905 -12.75943,5.35607 -20.32924,8.59339 l -13.76329,5.88603 z"
       style="opacity:1;fill:#d4aa00;fill-opacity:1;stroke:#000000;stroke-width:15.2567;stroke-linecap:round;stroke-linejoin:miter;stroke-miterlimit:4;stroke-dasharray:none;stroke-opacity:1;paint-order:stroke fill markers" />
    <path
       inkscape:connector-curvature="0"
       id="path30"
       d="M 623.61681,240.71582 C 611.64008,231.5368 595.8614,216.6648 597.0639,215.68871 c 0.72612,-0.58941 9.53942,-3.66635 19.58511,-6.83764 l 18.26488,-5.76598 15.19454,15.12414 c 11.18626,11.13444 14.57572,15.47046 12.84872,16.43694 -1.68719,0.9442 -32.51293,9.77523 -34.25476,9.81339 -0.10736,0.002 -2.39587,-1.68234 -5.08558,-3.74374 z"
       style="opacity:1;fill:#d4aa00;fill-opacity:1;stroke:#000000;stroke-width:15.2567;stroke-linecap:round;stroke-linejoin:miter;stroke-miterlimit:4;stroke-dasharray:none;stroke-opacity:1;paint-order:stroke fill markers" />
    <path
       inkscape:connector-curvature="0"
       id="path32"
       d="m 548.89796,238.95446 c -7.22271,-5.82722 -12.98512,-11.35778 -12.80535,-12.29014 0.17977,-0.93235 7.88781,-2.3643 17.12898,-3.1821 l 16.80212,-1.48692 7.39944,5.11236 c 11.45051,7.91128 23.62197,19.18384 22.56325,20.8969 -0.52512,0.84966 -9.2801,1.54485 -19.45551,1.54485 h -18.50073 z"
       style="opacity:1;fill:#d4aa00;fill-opacity:1;stroke:#000000;stroke-width:15.2567;stroke-linecap:round;stroke-linejoin:miter;stroke-miterlimit:4;stroke-dasharray:none;stroke-opacity:1;paint-order:stroke fill markers" />
    <path
       inkscape:connector-curvature="0"
       id="path36"
       d="m 784.5093,168.46604 c -1.99495,-1.55574 -8.65526,-9.61464 -14.80069,-17.90868 l -11.1735,-15.08007 9.64361,-10.34781 c 5.30399,-5.69129 10.6212,-11.43212 11.81601,-12.75741 1.84325,-2.04451 4.04557,-0.95043 14.53517,7.22081 6.79953,5.29673 15.3751,12.31429 19.05682,15.59457 l 6.69404,5.96416 -13.47481,13.63187 c -16.41639,16.60775 -17.60796,17.33897 -22.29665,13.68256 z"
       style="opacity:1;fill:#d4aa00;fill-opacity:1;stroke:#000000;stroke-width:15.2567;stroke-linecap:round;stroke-linejoin:miter;stroke-miterlimit:4;stroke-dasharray:none;stroke-opacity:1;paint-order:stroke fill markers" />
    <path
       inkscape:connector-curvature="0"
       id="path38"
       d="m 813.99972,111.30196 c -9.96918,-8.10574 -18.12579,-15.471203 -18.12579,-16.367693 0,-0.89649 4.69777,-8.42033 10.43949,-16.71963 l 10.4395,-15.08963 8.63141,7.33307 c 4.74728,4.03319 13.39478,10.82323 19.21668,15.08899 l 10.58528,7.75591 -8.47878,12.434543 c -4.66333,6.839 -9.852,14.20475 -11.53039,16.36834 l -3.0516,3.93379 z"
       style="opacity:1;fill:#d4aa00;fill-opacity:1;stroke:#000000;stroke-width:15.2567;stroke-linecap:round;stroke-linejoin:miter;stroke-miterlimit:4;stroke-dasharray:none;stroke-opacity:1;paint-order:stroke fill markers" />
    <path
       inkscape:connector-curvature="0"
       id="path40"
       d="m 852.55695,68.096117 c -6.46824,-4.88167 -14.92376,-11.90345 -18.79003,-15.60395 l -7.02958,-6.72819 9.97842,-20.58487 c 5.48813,-11.32168 10.64411,-20.58487 11.45772,-20.58487 0.81362,0 8.94012,7.13258 18.05888,15.85017 l 16.57958,15.85018 -3.89851,9.5777 c -2.14418,5.26773 -6.30545,14.42012 -9.24727,20.33864 l -5.34876,10.76094 z"
       style="opacity:1;fill:#d4aa00;fill-opacity:1;stroke:#000000;stroke-width:15.2567;stroke-linecap:round;stroke-linejoin:miter;stroke-miterlimit:4;stroke-dasharray:none;stroke-opacity:1;paint-order:stroke fill markers" />
    <path
       inkscape:connector-curvature="0"
       id="path42"
       d="M 871.46571,0.07004701 C 857.23355,-13.287303 855.01874,-16.088153 855.71486,-19.848453 c 2.01929,-10.90778 10.62174,-40.82218 11.73919,-40.82218 0.68381,0 4.35066,3.37109 8.14855,7.49132 3.79789,4.12022 11.06054,10.6971 16.13923,14.61527 10.92341,8.42735 11.04283,9.20418 4.94084,32.13953 -5.69853,21.41886 -5.90573,22.03749 -7.38128,22.03749 -0.70114,0 -8.72719,-6.99432 -17.83568,-15.54292999 z"
       style="opacity:1;fill:#d4aa00;fill-opacity:1;stroke:#000000;stroke-width:15.2567;stroke-linecap:round;stroke-linejoin:miter;stroke-miterlimit:4;stroke-dasharray:none;stroke-opacity:1;paint-order:stroke fill markers" />
    <path
       inkscape:connector-curvature="0"
       id="path44"
       d="m 886.86618,-68.845963 -16.53595,-16.59823 2.04132,-20.134947 2.04132,-20.13495 16.74207,17.6888 16.74207,17.688797 -1.04053,17.79952 c -0.57228,9.78973 -1.58363,18.3597 -2.24744,19.04437 -0.6638,0.68468 -8.64809,-6.22433 -17.74286,-15.35336 z"
       style="opacity:1;fill:#d4aa00;fill-opacity:1;stroke:#000000;stroke-width:15.2567;stroke-linecap:round;stroke-linejoin:miter;stroke-miterlimit:4;stroke-dasharray:none;stroke-opacity:1;paint-order:stroke fill markers" />
    <path
       inkscape:connector-curvature="0"
       id="path50"
       d="m 489.04428,34.260087 c -2.66532,-2.66532 -3.39174,-5.65621 -3.39672,-13.98533 -0.009,-14.8214 -3.46052,-19.95109999 -16.664,-24.76532 -13.41826,-4.89255 -17.86117,-10.2939 -16.73788,-20.34863 1.2035,-10.77278 8.60524,-20.46261 19.97763,-26.1533 7.85964,-3.93293 13.0069,-5.02337 30.51345,-6.46424 36.65863,-3.01719 38.52927,-3.31462 43.009,-6.83838 9.77315,-7.68756 1.7848,-24.34431 -13.5765,-28.30876 -3.6731,-0.94795 -17.92529,-2.5125 -31.67152,-3.47678 -13.74624,-0.96427 -26.71445,-2.64355 -28.81826,-3.73173 -6.21837,-3.216407 -9.75827,-6.944357 -9.75827,-10.276657 0,-4.30831 10.46713,-15.49603 22.19417,-23.72208 11.65075,-8.17253 14.3691,-13.27741 16.58817,-31.15142 1.30859,-10.5404 2.4777,-14.12816 5.36588,-16.46687 8.8333,-7.15278 27.39042,-1.00359 35.93455,11.90747 6.02943,9.11108 12.35552,27.77511 17.92946,52.89777 4.03608,18.191257 5.26819,21.461607 8.73734,23.191167 6.15351,3.06785 13.61861,-0.70159 18.38692,-9.284327 3.54572,-6.38213 4.05947,-10.18643 5.25039,-38.87894 1.55853,-37.549 2.97119,-42.26121 16.32939,-54.46986 9.18552,-8.39505 16.46397,-11.43782 19.21972,-8.03485 0.83817,1.03502 3.77912,6.84029 6.53545,12.9006 7.37587,16.21723 9.76232,17.79951 26.8459,17.79951 12.24146,0 14.67612,0.49727 17.82031,3.63972 7.16812,7.16415 2.85247,24.84403 -9.14667,37.47104 -3.62515,3.81484 -10.74499,7.62816 -23.12614,12.38614 -9.83866,3.78092 -21.76272,8.39244 -26.49788,10.24782 -16.18822,6.34303 -25.85182,17.670607 -22.59217,26.482297 2.31998,6.27149 8.27655,6.23157 34.0935,-0.22851 35.30825,-8.83504 52.68921,-7.89933 59.98084,3.22908 6.58016,10.0426 2.26086,18.51978 -16.48543,32.35474 -11.22949,8.28748 -13.47508,12.55142 -14.51799,27.56683 -0.49583,7.13877 -2.01662,14.75971 -3.37955,16.93539 -5.20275,8.30532 -24.58482,11.81553 -30.81886,5.5815 -1.74716,-1.74716999 -6.01942,-11.85475 -9.49392,-22.46129 -10.20943,-31.16627 -13.93202,-35.38895 -31.19778,-35.38895 -18.57647,0 -21.88755,3.99729 -39.31704,47.46536 -7.68453,19.16475 -10.48806,24.20784 -17.24548,31.02187 -13.73232,13.84736 -32.49006,19.13786 -40.27001,11.35792 z"
       style="opacity:1;fill:#2ca02c;fill-opacity:1;stroke:#000000;stroke-width:15.2567;stroke-linecap:round;stroke-linejoin:miter;stroke-miterlimit:4;stroke-dasharray:none;stroke-opacity:1;paint-order:stroke fill markers" />
    <path
       inkscape:connector-curvature="0"
       id="path62"
       d="M 474.72104,201.23632 C 432.37622,195.33531 412.58305,186.62881 382.97139,160.878 346.68188,129.32005 313.01577,69.855407 302.43355,18.623567 c -3.88059,-18.78709999 -5.11464,-54.25005 -2.77479,-79.73866 4.26493,-46.458967 22.24996,-97.393487 48.86486,-138.387797 10.8904,-16.77424 24.19654,-34.41809 25.19983,-33.41481 0.383,0.383 -1.19769,7.86731 -3.51264,16.63179 -5.72487,21.67449 -12.10692,57.5049 -14.57544,81.83009 -3.03223,29.88017 -1.2748,89.795517 3.3566,114.434747 21.91479,116.58766 99.20284,189.035133 226.87895,212.669383 l 11.41132,2.11238 -11.12243,2.83933 c -15.71963,4.01292 -50.58853,8.07711 -67.65336,7.88544 -7.95285,-0.0893 -27.65629,-2.00143 -43.78541,-4.24914 z"
       style="opacity:1;fill:#d4aa00;fill-opacity:0.484444;stroke:none;stroke-width:15.2567;stroke-linecap:round;stroke-linejoin:miter;stroke-miterlimit:4;stroke-dasharray:none;stroke-opacity:1;paint-order:stroke fill markers;filter:url(#filter935)" />
    <path
       inkscape:connector-curvature="0"
       id="path64"
       d=""
       style="opacity:1;fill:#d4aa00;fill-opacity:1;stroke:#000000;stroke-width:15.2567;stroke-linecap:round;stroke-linejoin:miter;stroke-miterlimit:4;stroke-dasharray:none;stroke-opacity:1;paint-order:stroke fill markers" />
    <path
       inkscape:connector-curvature="0"
       id="path66"
       d=""
       style="opacity:1;fill:#d4aa00;fill-opacity:1;stroke:#000000;stroke-width:15.2567;stroke-linecap:round;stroke-linejoin:miter;stroke-miterlimit:4;stroke-dasharray:none;stroke-opacity:1;paint-order:stroke fill markers" />
  </g>
</svg>
