<?xml version="1.0" encoding="UTF-8" standalone="no"?>
<!-- Created with Inkscape (http://www.inkscape.org/) -->

<svg
   width="32"
   height="32"
   viewBox="0 0 8.4666665 8.4666669"
   version="1.1"
   id="svg5"
   inkscape:version="1.1.1 (3bf5ae0d25, 2021-09-20)"
   sodipodi:docname="nasty-pixie.svg"
   inkscape:export-filename="D:\Implementaciones\Proyectos IONIC\TraderApp\src\assets\icon\icon.png"
   inkscape:export-xdpi="192.00002"
   inkscape:export-ydpi="192.00002"
   xmlns:inkscape="http://www.inkscape.org/namespaces/inkscape"
   xmlns:sodipodi="http://sodipodi.sourceforge.net/DTD/sodipodi-0.dtd"
   xmlns="http://www.w3.org/2000/svg"
   xmlns:svg="http://www.w3.org/2000/svg">
  <sodipodi:namedview
     id="namedview7"
     pagecolor="#ffffff"
     bordercolor="#666666"
     borderopacity="1.0"
     inkscape:pageshadow="2"
     inkscape:pageopacity="0.0"
     inkscape:pagecheckerboard="0"
     inkscape:document-units="mm"
     showgrid="false"
     units="px"
     inkscape:zoom="23.147924"
     inkscape:cx="10.216899"
     inkscape:cy="17.172166"
     inkscape:window-width="2400"
     inkscape:window-height="1271"
     inkscape:window-x="2391"
     inkscape:window-y="-9"
     inkscape:window-maximized="1"
     inkscape:current-layer="layer1"
     inkscape:snap-global="false" />
  <defs
     id="defs2" />
  <g
     inkscape:label="Capa 1"
     inkscape:groupmode="layer"
     id="layer1">
    <path
       style="display:inline;fill:#333333;fill-opacity:1;stroke-width:0.0175917"
       d="M 4.6495409,8.2785616 C 4.0524823,8.0617894 3.712867,7.6605302 3.5662822,6.9986793 c -0.00749,-0.033779 -0.02173,-0.048377 -0.047196,-0.048377 -0.087457,0 -0.4060868,-0.077322 -0.5409784,-0.1312802 L 2.8309707,6.7601675 2.7230279,6.8476426 C 2.5087134,7.0213226 2.2341565,7.137776 1.9388455,7.1802554 1.7476569,7.2077572 1.4204335,7.1920655 1.1901608,7.1443524 0.92190683,7.0887695 0.94612485,7.1096659 0.95788038,6.9439338 0.9939187,6.4358799 1.2089468,5.9449104 1.5837386,5.5149315 L 1.7078481,5.3725474 1.6792783,5.1692944 1.6507086,4.966041 1.5857962,4.9556664 C 1.4731858,4.9376637 1.2484645,4.8557379 1.0934061,4.7761752 0.61156131,4.5289281 0.28157071,4.0775094 0.13580336,3.466199 0.07485701,3.2106026 0.05549845,3.0284405 0.05549845,2.7105071 c 0,-0.7304803 0.19944609,-1.5340317 0.58776956,-2.36807719 C 0.69665578,0.22776489 0.74777366,0.13146955 0.7568637,0.12843972 0.81215098,0.11000037 1.3498103,0.36417117 1.5737185,0.51458357 1.8707608,0.71412452 2.2297412,1.049237 2.4658092,1.3473613 c 0.2832111,0.3576589 0.6008149,0.9292895 0.7504339,1.3506469 0.059416,0.1673275 0.07154,0.1885766 0.1032256,0.1809023 0.1084111,-0.026255 0.3881403,-0.045465 0.5182375,-0.035586 0.4605037,0.034969 0.8569876,0.1929536 1.202705,0.4792423 l 0.085634,0.070915 0.1694433,-0.1271781 C 5.7343097,2.9369398 6.2133755,2.7190355 6.6963485,2.629119 6.9325459,2.585147 7.4030775,2.584829 7.6287064,2.6284941 7.8231791,2.6661291 8.1400228,2.7633406 8.2953371,2.8330259 L 8.4111682,2.8849976 8.401075,2.9957648 C 8.3064829,4.0324914 8.0861296,4.8517354 7.7348545,5.4726058 7.5993206,5.7121601 7.4510814,5.9032034 7.2620591,6.0819249 6.7490902,6.5669392 6.1427684,6.6354193 5.4817145,6.2830023 L 5.3225888,6.1981713 5.1988905,6.326095 5.0751923,6.4540187 5.1070721,6.6098054 C 5.2243423,7.1828652 5.1767151,7.7259969 4.9708126,8.1637431 4.9038638,8.306072 4.8807689,8.3398754 4.8509579,8.3391666 4.8306415,8.3386815 4.7400053,8.3114121 4.649531,8.2785632 Z"
       id="path435"
       sodipodi:nodetypes="ccsccssscsccccccsccscscsscscssccssscccssccc" />
    <circle
       style="display:none;fill:#333333;fill-rule:evenodd;stroke-width:0.233757"
       id="path33"
       cx="4.2333331"
       cy="4.2333331"
       r="4.1605601" />
    <path
       style="display:inline;fill:#ff5555;stroke-width:0.0162922"
       d="M 4.9502693,7.9340237 C 4.3973149,7.7332643 4.0827867,7.3616458 3.94703,6.7486852 3.94009,6.7174012 3.926905,6.7038822 3.90332,6.7038822 c -0.080997,0 -0.3760895,-0.07161 -0.5010168,-0.1215827 L 3.2660353,6.5277921 3.1660661,6.6088055 C 2.9675829,6.7696559 2.7133072,6.877507 2.4398106,6.9168485 2.2627449,6.9423187 1.9596932,6.9277862 1.7464306,6.8835976 1.4979923,6.8321205 1.5204213,6.8514733 1.5313085,6.6979837 1.5646847,6.2274593 1.7638289,5.7727573 2.1109351,5.3745406 L 2.2258768,5.2426743 2.1994174,5.0544354 2.1729581,4.8661961 2.1128407,4.8565879 C 2.0085488,4.839915 1.8004274,4.764041 1.6568231,4.6903555 1.2105717,4.4613724 0.90495714,4.0432996 0.76995751,3.4771461 0.71351321,3.2404304 0.69558465,3.0717245 0.69558465,2.7772765 c 0,-0.6765203 0.18471319,-1.4207141 0.54435155,-2.19314943 0.049444,-0.10619481 0.096786,-0.1953769 0.1052046,-0.19818292 0.051203,-0.0170772 0.5491461,0.21831818 0.7565144,0.35761974 0.2751001,0.18480104 0.6075629,0.49515911 0.8261928,0.77126121 0.2622905,0.331239 0.5564332,0.8606437 0.695,1.2508758 0.055027,0.1549672 0.066255,0.1746466 0.0956,0.1675392 0.1004028,-0.024315 0.3594687,-0.042107 0.4799557,-0.032957 0.4264867,0.032386 0.7936827,0.1787003 1.1138623,0.4438411 L 5.391575,3.4098002 5.5485016,3.2920166 C 5.9549072,2.9869828 6.3985848,2.7851749 6.845881,2.7019005 7.0646307,2.6611767 7.5004046,2.6608822 7.7093665,2.7013218 7.8894736,2.7361767 8.1829124,2.8262073 8.3267538,2.890745 l 0.1072747,0.048133 -0.00935,0.1025849 C 8.3370762,4.001607 8.1330002,4.7603342 7.8076735,5.3353414 7.6821514,5.5572001 7.5448625,5.7341312 7.3698031,5.8996507 6.8947268,6.3488374 6.3331934,6.4122589 5.720971,6.0858747 L 5.5735998,6.00731 5.4590389,6.1257841 5.3444782,6.2442582 5.3740031,6.3885371 C 5.4826106,6.9192655 5.4385016,7.4222765 5.247809,7.8276868 5.1858056,7.959502 5.1644167,7.9908083 5.1368078,7.9901519 5.1179922,7.9897026 5.0340512,7.9644476 4.9502601,7.9340252 Z M 4.9728251,7.4107363 C 5.0845325,7.3375432 5.1210886,7.1968574 5.0586844,7.0803181 4.9363753,6.8519084 4.5896884,6.9350943 4.5894752,7.1929022 c -8.18e-5,0.1009461 0.045325,0.1782236 0.131993,0.2246337 0.080911,0.043326 0.1789025,0.040676 0.2513572,-0.00679 z M 2.3085102,6.5593741 c 0.1536952,-0.1115284 0.1516723,-0.330938 -0.00393,-0.4258066 -0.072935,-0.04447 -0.1947103,-0.043289 -0.268971,0.00259 -0.061413,0.037954 -0.117168,0.139225 -0.1177614,0.2138767 -7.953e-4,0.100764 0.0897,0.2193638 0.1870016,0.2450778 0.054127,0.014299 0.1603729,-0.00435 0.2036519,-0.035754 z M 4.3802562,6.3714397 C 4.9935665,6.2540088 5.4784104,5.7978304 5.6332124,5.1925611 5.6746036,5.03072 5.6727405,5.0159738 5.6240907,5.1204567 5.5291857,5.3243171 5.3383886,5.5488815 5.1499117,5.6785572 5.0466703,5.7495902 4.8297199,5.8476919 4.7034505,5.8804421 4.6452064,5.8955561 4.5169049,5.9117852 4.4183375,5.916522 3.8591558,5.9433962 3.3405021,5.6310045 3.0993847,5.1220947 3.0041116,4.9210094 2.9717705,4.7718186 2.9707867,4.5288759 2.9701087,4.3616907 2.9772905,4.2896233 3.0048683,4.1867403 3.111969,3.7872146 3.3509717,3.4856664 3.717784,3.2872615 3.8326253,3.2251459 3.824056,3.222076 3.66153,3.267116 3.3924546,3.3416813 3.1393037,3.4949314 2.9404446,3.7036415 2.7367521,3.9174249 2.6167373,4.1332906 2.5415923,4.4210416 2.4852303,4.636872 2.4818693,4.9508582 2.5336523,5.1611278 2.6877012,5.7864465 3.163274,6.245474 3.7851014,6.3690382 c 0.1488706,0.029582 0.4469066,0.030784 0.595141,0.0024 z M 6.6261026,5.9503685 c 0.090082,-0.061309 0.1220262,-0.1178181 0.1220262,-0.2158713 0,-0.1343389 -0.08868,-0.2327893 -0.2233593,-0.2479695 -0.1504901,-0.016958 -0.2735523,0.096204 -0.2735523,0.2515563 0,0.1947509 0.218692,0.3185893 0.3748854,0.2122845 z M 7.332728,5.4158261 C 7.502055,5.2998032 7.5055379,5.0419467 7.339278,4.9319125 7.1992103,4.8392205 7.0023468,4.8803945 6.9235496,5.0188625 c -0.042712,0.075061 -0.049541,0.212485 -0.013949,0.280627 0.0292,0.055894 0.1035642,0.1267264 0.1562311,0.148813 0.067029,0.028109 0.2025475,0.011611 0.2669002,-0.032477 z M 7.5131025,4.5610389 C 7.8318227,4.509356 8.0225307,4.1300955 7.889681,3.8121418 7.7848752,3.5613057 7.4674483,3.4295036 7.2043092,3.5275616 7.0700909,3.5775775 6.9372818,3.7103867 6.8872661,3.8446046 c -0.098268,0.2637095 0.033714,0.5805334 0.285715,0.6858532 0.072201,0.030177 0.1942867,0.053228 0.2431261,0.045909 0.017916,-0.00268 0.06157,-0.0096 0.096995,-0.015318 z M 1.7382181,4.1766736 C 1.9513423,4.0568906 1.8813493,3.7382092 1.6358418,3.7105365 1.483607,3.6933777 1.352195,3.8264474 1.3671965,3.9825724 1.3851131,4.169073 1.5749969,4.2684096 1.7382181,4.1766736 Z M 1.4042942,3.3948789 C 1.599616,3.3415251 1.6835491,3.1235849 1.5758709,2.9493592 1.5075684,2.8388453 1.3212993,2.7880314 1.2057244,2.8483861 0.95982776,2.9767962 0.99463936,3.3161462 1.2619664,3.3966392 c 0.061475,0.018509 0.06843,0.018426 0.1423278,-0.00176 z M 1.9217591,2.5227083 C 2.0267818,2.4889303 2.1644152,2.3607463 2.2221803,2.2429223 2.2604003,2.1649603 2.2676403,2.129439 2.2677053,2.0195385 2.267773,1.9046029 2.2613153,1.8757342 2.2141473,1.7799128 2.1557373,1.6612654 2.0739849,1.5801632 1.9523007,1.5201421 c -0.1086533,-0.053593 -0.3356684,-0.053593 -0.444324,0 -0.1217252,0.060042 -0.2034353,0.141117 -0.2618461,0.259819 -0.047391,0.096305 -0.053566,0.1242006 -0.053064,0.2396256 6.916e-4,0.1581905 0.047096,0.2731825 0.1525663,0.3780688 0.1539075,0.1530548 0.3540177,0.1964914 0.5761262,0.1250528 z"
       id="path145" />
    <text
       xml:space="preserve"
       style="font-style:normal;font-weight:normal;font-size:3.53406px;line-height:1.25;font-family:sans-serif;display:none;fill:#000000;fill-opacity:1;stroke:none;stroke-width:0.265054"
       x="0.19194236"
       y="4.8968325"
       id="text6989"><tspan
         sodipodi:role="line"
         id="tspan6987"
         style="font-style:normal;font-variant:normal;font-weight:normal;font-stretch:normal;font-size:3.53406px;font-family:'Matura MT Script Capitals';-inkscape-font-specification:'Matura MT Script Capitals';stroke-width:0.265054"
         x="0"
         y="0">NP</tspan></text>
  </g>
</svg>
